<?xml version="1.0" encoding="UTF-8" standalone="no"?>
<!DOCTYPE svg PUBLIC "-//W3C//DTD SVG 1.1//EN"
 "http://www.w3.org/Graphics/SVG/1.1/DTD/svg11.dtd">
<!-- Generated by graphviz version 14.1.5 (20260411.2331)
 -->
<!-- Title: C:/JoltPhysics/Jolt/Physics/PhysicsSystem.cpp Pages: 1 -->
<svg width="3533pt" height="380pt"
 viewBox="0.00 0.00 3533.00 380.00" xmlns="http://www.w3.org/2000/svg" xmlns:xlink="http://www.w3.org/1999/xlink">
<g id="graph0" class="graph" transform="scale(1 1) rotate(0) translate(4 376)">
<title>C:/JoltPhysics/Jolt/Physics/PhysicsSystem.cpp</title>
<!-- Node1 -->
<g id="Node000001" class="node">
<title>Node1</title>
<g id="a_Node000001"><a xlink:title=" ">
<polygon fill="#999999" stroke="#666666" points="1640.88,-372 1495.88,-372 1495.88,-340 1640.88,-340 1640.88,-372"/>
<text xml:space="preserve" text-anchor="start" x="1503.88" y="-358.5" font-family="Helvetica,sans-Serif" font-size="10.00">C:/JoltPhysics/Jolt</text>
<text xml:space="preserve" text-anchor="middle" x="1568.38" y="-346.5" font-family="Helvetica,sans-Serif" font-size="10.00">/Physics/PhysicsSystem.cpp</text>
</a>
</g>
</g>
<!-- Node2 -->
<g id="Node000002" class="node">
<title>Node2</title>
<g id="a_Node000002"><a xlink:href="_jolt_8h.html" target="_top" xlink:title=" ">
<polygon fill="#fff0f0" stroke="red" points="58.75,-292 0,-292 0,-272 58.75,-272 58.75,-292"/>
<text xml:space="preserve" text-anchor="middle" x="29.38" y="-278.5" font-family="Helvetica,sans-Serif" font-size="10.00">Jolt/Jolt.h</text>
</a>
</g>
</g>
<!-- Node1&#45;&gt;Node2 -->
<g id="edge1_Node000001_Node000002" class="edge">
<title>Node1&#45;&gt;Node2</title>
<g id="a_edge1_Node000001_Node000002"><a xlink:title=" ">
<path fill="none" stroke="#63b8ff" d="M1495.69,-354.3C1215.07,-351.37 210.99,-338.54 72.38,-304 66.48,-302.53 60.44,-300.19 54.83,-297.59"/>
<polygon fill="#63b8ff" stroke="#63b8ff" points="56.55,-294.54 46.05,-293.13 53.38,-300.78 56.55,-294.54"/>
</a>
</g>
</g>
<!-- Node46 -->
<g id="Node000046" class="node">
<title>Node46</title>
<g id="a_Node000046"><a xlink:href="_physics_system_8h.html" target="_top" xlink:title=" ">
<polygon fill="#fff0f0" stroke="red" points="302.5,-292 152.25,-292 152.25,-272 302.5,-272 302.5,-292"/>
<text xml:space="preserve" text-anchor="middle" x="227.38" y="-278.5" font-family="Helvetica,sans-Serif" font-size="10.00">Jolt/Physics/PhysicsSystem.h</text>
</a>
</g>
</g>
<!-- Node1&#45;&gt;Node46 -->
<g id="edge2_Node000001_Node000046" class="edge">
<title>Node1&#45;&gt;Node46</title>
<g id="a_edge2_Node000001_Node000046"><a xlink:title=" ">
<path fill="none" stroke="#63b8ff" d="M1495.74,-353.86C1264.41,-349.96 546.58,-335.55 316.38,-304 301.61,-301.98 285.7,-298.61 271.47,-295.16"/>
<polygon fill="#63b8ff" stroke="#63b8ff" points="272.5,-291.81 261.95,-292.77 270.79,-298.6 272.5,-291.81"/>
</a>
</g>
</g>
<!-- Node123 -->
<g id="Node000123" class="node">
<title>Node123</title>
<g id="a_Node000123"><a xlink:href="_physics_update_context_8h.html" target="_top" xlink:title=" ">
<polygon fill="#fff0f0" stroke="red" points="254.25,-224 114.5,-224 114.5,-192 254.25,-192 254.25,-224"/>
<text xml:space="preserve" text-anchor="start" x="122.5" y="-210.5" font-family="Helvetica,sans-Serif" font-size="10.00">Jolt/Physics/PhysicsUpdate</text>
<text xml:space="preserve" text-anchor="middle" x="184.38" y="-198.5" font-family="Helvetica,sans-Serif" font-size="10.00">Context.h</text>
</a>
</g>
</g>
<!-- Node1&#45;&gt;Node123 -->
<g id="edge7_Node000001_Node000123" class="edge">
<title>Node1&#45;&gt;Node123</title>
<g id="a_edge7_Node000001_Node000123"><a xlink:title=" ">
<path fill="none" stroke="#63b8ff" d="M1495.54,-355.16C1211.38,-355.45 190.7,-353.05 143.38,-304 124.17,-284.09 142.91,-253.76 160.89,-232.75"/>
<polygon fill="#63b8ff" stroke="#63b8ff" points="163.33,-235.26 167.42,-225.49 158.13,-230.58 163.33,-235.26"/>
</a>
</g>
</g>
<!-- Node125 -->
<g id="Node000125" class="node">
<title>Node125</title>
<g id="a_Node000125"><a xlink:href="_job_system_8h.html" target="_top" xlink:title=" ">
<polygon fill="#fff0f0" stroke="red" points="193.62,-150 77.12,-150 77.12,-130 193.62,-130 193.62,-150"/>
<text xml:space="preserve" text-anchor="middle" x="135.38" y="-136.5" font-family="Helvetica,sans-Serif" font-size="10.00">Jolt/Core/JobSystem.h</text>
</a>
</g>
</g>
<!-- Node1&#45;&gt;Node125 -->
<g id="edge39_Node000001_Node000125" class="edge">
<title>Node1&#45;&gt;Node125</title>
<g id="a_edge39_Node000001_Node000125"><a xlink:title=" ">
<path fill="none" stroke="#63b8ff" d="M1495.83,-354.72C1211.54,-353.32 186.28,-345.4 131.38,-304 90.57,-273.24 91.95,-241.31 105.38,-192 108.51,-180.48 114.99,-168.9 121.12,-159.7"/>
<polygon fill="#63b8ff" stroke="#63b8ff" points="123.88,-161.86 126.83,-151.68 118.18,-157.8 123.88,-161.86"/>
</a>
</g>
</g>
<!-- Node129 -->
<g id="Node000129" class="node">
<title>Node129</title>
<g id="a_Node000129"><a xlink:href="_physics_settings_8h.html" target="_top" xlink:title=" ">
<polygon fill="white" stroke="#666666" points="698.62,-20 546.12,-20 546.12,0 698.62,0 698.62,-20"/>
<text xml:space="preserve" text-anchor="middle" x="622.38" y="-6.5" font-family="Helvetica,sans-Serif" font-size="10.00">Jolt/Physics/PhysicsSettings.h</text>
</a>
</g>
</g>
<!-- Node1&#45;&gt;Node129 -->
<g id="edge6_Node000001_Node000129" class="edge">
<title>Node1&#45;&gt;Node129</title>
<g id="a_edge6_Node000001_Node000129"><a xlink:title=" ">
<path fill="none" stroke="#63b8ff" d="M1495.6,-354.41C1239.53,-352.04 393.06,-341.37 349.38,-304 316.65,-276.01 330.38,-252.06 330.38,-209 330.38,-209 330.38,-209 330.38,-139 330.38,-48.95 448.31,-21.66 534.28,-13.73"/>
<polygon fill="#63b8ff" stroke="#63b8ff" points="534.48,-17.22 544.15,-12.9 533.89,-10.25 534.48,-17.22"/>
</a>
</g>
</g>
<!-- Node130 -->
<g id="Node000130" class="node">
<title>Node130</title>
<g id="a_Node000130"><a xlink:href="_physics_step_listener_8h.html" target="_top" xlink:title=" ">
<polygon fill="white" stroke="#666666" points="486.62,-298 358.12,-298 358.12,-266 486.62,-266 486.62,-298"/>
<text xml:space="preserve" text-anchor="start" x="366.12" y="-284.5" font-family="Helvetica,sans-Serif" font-size="10.00">Jolt/Physics/PhysicsStep</text>
<text xml:space="preserve" text-anchor="middle" x="422.38" y="-272.5" font-family="Helvetica,sans-Serif" font-size="10.00">Listener.h</text>
</a>
</g>
</g>
<!-- Node1&#45;&gt;Node130 -->
<g id="edge8_Node000001_Node000130" class="edge">
<title>Node1&#45;&gt;Node130</title>
<g id="a_edge8_Node000001_Node000130"><a xlink:title=" ">
<path fill="none" stroke="#63b8ff" d="M1495.68,-353.71C1287.12,-349.66 689.45,-335.56 496.38,-304 491.7,-303.24 486.91,-302.28 482.11,-301.2"/>
<polygon fill="#63b8ff" stroke="#63b8ff" points="482.99,-297.82 472.45,-298.85 481.34,-304.62 482.99,-297.82"/>
</a>
</g>
</g>
<!-- Node131 -->
<g id="Node000131" class="node">
<title>Node131</title>
<g id="a_Node000131"><a xlink:href="_broad_phase_brute_force_8h.html" target="_top" xlink:title=" ">
<polygon fill="#fff0f0" stroke="red" points="689.75,-298 505,-298 505,-266 689.75,-266 689.75,-298"/>
<text xml:space="preserve" text-anchor="start" x="513" y="-284.5" font-family="Helvetica,sans-Serif" font-size="10.00">Jolt/Physics/Collision</text>
<text xml:space="preserve" text-anchor="middle" x="597.38" y="-272.5" font-family="Helvetica,sans-Serif" font-size="10.00">/BroadPhase/BroadPhaseBruteForce.h</text>
</a>
</g>
</g>
<!-- Node1&#45;&gt;Node131 -->
<g id="edge9_Node000001_Node000131" class="edge">
<title>Node1&#45;&gt;Node131</title>
<g id="a_edge9_Node000001_Node000131"><a xlink:title=" ">
<path fill="none" stroke="#63b8ff" d="M1495.56,-354.33C1345.7,-352.15 992.17,-342.94 698.38,-304 691.18,-303.05 683.74,-301.87 676.3,-300.56"/>
<polygon fill="#63b8ff" stroke="#63b8ff" points="677.01,-297.13 666.54,-298.77 675.74,-304.02 677.01,-297.13"/>
</a>
</g>
</g>
<!-- Node132 -->
<g id="Node000132" class="node">
<title>Node132</title>
<g id="a_Node000132"><a xlink:href="_broad_phase_quad_tree_8h.html" target="_top" xlink:title=" ">
<polygon fill="#fff0f0" stroke="red" points="887.12,-298 707.62,-298 707.62,-266 887.12,-266 887.12,-298"/>
<text xml:space="preserve" text-anchor="start" x="715.62" y="-284.5" font-family="Helvetica,sans-Serif" font-size="10.00">Jolt/Physics/Collision</text>
<text xml:space="preserve" text-anchor="middle" x="797.38" y="-272.5" font-family="Helvetica,sans-Serif" font-size="10.00">/BroadPhase/BroadPhaseQuadTree.h</text>
</a>
</g>
</g>
<!-- Node1&#45;&gt;Node132 -->
<g id="edge10_Node000001_Node000132" class="edge">
<title>Node1&#45;&gt;Node132</title>
<g id="a_edge10_Node000001_Node000132"><a xlink:title=" ">
<path fill="none" stroke="#63b8ff" d="M1495.52,-352.36C1372.55,-347.26 1116.2,-333.79 901.38,-304 894.17,-303 886.7,-301.81 879.24,-300.51"/>
<polygon fill="#63b8ff" stroke="#63b8ff" points="879.9,-297.07 869.43,-298.73 878.65,-303.96 879.9,-297.07"/>
</a>
</g>
</g>
<!-- Node136 -->
<g id="Node000136" class="node">
<title>Node136</title>
<g id="a_Node000136"><a xlink:href="_collision_dispatch_8h.html" target="_top" xlink:title=" ">
<polygon fill="#fff0f0" stroke="red" points="1091.62,-224 981.12,-224 981.12,-192 1091.62,-192 1091.62,-224"/>
<text xml:space="preserve" text-anchor="start" x="989.12" y="-210.5" font-family="Helvetica,sans-Serif" font-size="10.00">Jolt/Physics/Collision</text>
<text xml:space="preserve" text-anchor="middle" x="1036.38" y="-198.5" font-family="Helvetica,sans-Serif" font-size="10.00">/CollisionDispatch.h</text>
</a>
</g>
</g>
<!-- Node1&#45;&gt;Node136 -->
<g id="edge11_Node000001_Node000136" class="edge">
<title>Node1&#45;&gt;Node136</title>
<g id="a_edge11_Node000001_Node000136"><a xlink:title=" ">
<path fill="none" stroke="#63b8ff" d="M1495.53,-353.7C1351.74,-350.37 1042.47,-339.16 1010.38,-304 992.84,-284.79 1005.32,-254.87 1018.34,-233.75"/>
<polygon fill="#63b8ff" stroke="#63b8ff" points="1021.24,-235.71 1023.81,-225.43 1015.39,-231.86 1021.24,-235.71"/>
</a>
</g>
</g>
<!-- Node137 -->
<g id="Node000137" class="node">
<title>Node137</title>
<g id="a_Node000137"><a xlink:href="_shape_cast_8h.html" target="_top" xlink:title=" ">
<polygon fill="#fff0f0" stroke="red" points="1053.62,-156 943.12,-156 943.12,-124 1053.62,-124 1053.62,-156"/>
<text xml:space="preserve" text-anchor="start" x="951.12" y="-142.5" font-family="Helvetica,sans-Serif" font-size="10.00">Jolt/Physics/Collision</text>
<text xml:space="preserve" text-anchor="middle" x="998.38" y="-130.5" font-family="Helvetica,sans-Serif" font-size="10.00">/ShapeCast.h</text>
</a>
</g>
</g>
<!-- Node1&#45;&gt;Node137 -->
<g id="edge16_Node000001_Node000137" class="edge">
<title>Node1&#45;&gt;Node137</title>
<g id="a_edge16_Node000001_Node000137"><a xlink:title=" ">
<path fill="none" stroke="#63b8ff" d="M1495.51,-352.96C1350.28,-348.26 1035.37,-334.63 997.38,-304 957.67,-271.99 960.46,-241.59 972.38,-192 974.48,-183.23 978.36,-174.27 982.49,-166.35"/>
<polygon fill="#63b8ff" stroke="#63b8ff" points="985.54,-168.08 987.4,-157.65 979.44,-164.64 985.54,-168.08"/>
</a>
</g>
</g>
<!-- Node138 -->
<g id="Node000138" class="node">
<title>Node138</title>
<g id="a_Node000138"><a xlink:href="_collide_shape_8h.html" target="_top" xlink:title=" ">
<polygon fill="#fff0f0" stroke="red" points="970.62,-88 860.12,-88 860.12,-56 970.62,-56 970.62,-88"/>
<text xml:space="preserve" text-anchor="start" x="868.12" y="-74.5" font-family="Helvetica,sans-Serif" font-size="10.00">Jolt/Physics/Collision</text>
<text xml:space="preserve" text-anchor="middle" x="915.38" y="-62.5" font-family="Helvetica,sans-Serif" font-size="10.00">/CollideShape.h</text>
</a>
</g>
</g>
<!-- Node1&#45;&gt;Node138 -->
<g id="edge17_Node000001_Node000138" class="edge">
<title>Node1&#45;&gt;Node138</title>
<g id="a_edge17_Node000001_Node000138"><a xlink:title=" ">
<path fill="none" stroke="#63b8ff" d="M1495.45,-353.69C1343.01,-350.26 1001.45,-338.76 962.38,-304 903.74,-251.84 906.57,-148.22 911.69,-99.49"/>
<polygon fill="#63b8ff" stroke="#63b8ff" points="915.13,-100.19 912.83,-89.85 908.18,-99.38 915.13,-100.19"/>
</a>
</g>
</g>
<!-- Node142 -->
<g id="Node000142" class="node">
<title>Node142</title>
<g id="a_Node000142"><a xlink:href="_a_a_box_cast_8h.html" target="_top" xlink:title=" ">
<polygon fill="#fff0f0" stroke="red" points="1129.62,-298 1019.12,-298 1019.12,-266 1129.62,-266 1129.62,-298"/>
<text xml:space="preserve" text-anchor="start" x="1027.12" y="-284.5" font-family="Helvetica,sans-Serif" font-size="10.00">Jolt/Physics/Collision</text>
<text xml:space="preserve" text-anchor="middle" x="1074.38" y="-272.5" font-family="Helvetica,sans-Serif" font-size="10.00">/AABoxCast.h</text>
</a>
</g>
</g>
<!-- Node1&#45;&gt;Node142 -->
<g id="edge15_Node000001_Node000142" class="edge">
<title>Node1&#45;&gt;Node142</title>
<g id="a_edge15_Node000001_Node000142"><a xlink:title=" ">
<path fill="none" stroke="#63b8ff" d="M1495.74,-350.81C1409.65,-344.82 1262.24,-331.38 1138.38,-304 1135.06,-303.27 1131.67,-302.43 1128.26,-301.52"/>
<polygon fill="#63b8ff" stroke="#63b8ff" points="1129.46,-298.22 1118.88,-298.83 1127.53,-304.95 1129.46,-298.22"/>
</a>
</g>
</g>
<!-- Node143 -->
<g id="Node000143" class="node">
<title>Node143</title>
<g id="a_Node000143"><a xlink:href="_collision_collector_impl_8h.html" target="_top" xlink:title=" ">
<polygon fill="#fff0f0" stroke="red" points="1453.62,-298 1331.12,-298 1331.12,-266 1453.62,-266 1453.62,-298"/>
<text xml:space="preserve" text-anchor="start" x="1339.12" y="-284.5" font-family="Helvetica,sans-Serif" font-size="10.00">Jolt/Physics/Collision</text>
<text xml:space="preserve" text-anchor="middle" x="1392.38" y="-272.5" font-family="Helvetica,sans-Serif" font-size="10.00">/CollisionCollectorImpl.h</text>
</a>
</g>
</g>
<!-- Node1&#45;&gt;Node143 -->
<g id="edge18_Node000001_Node000143" class="edge">
<title>Node1&#45;&gt;Node143</title>
<g id="a_edge18_Node000001_Node000143"><a xlink:title=" ">
<path fill="none" stroke="#63b8ff" d="M1530.62,-339.55C1504.29,-328.78 1468.93,-314.32 1440.56,-302.71"/>
<polygon fill="#63b8ff" stroke="#63b8ff" points="1442.05,-299.54 1431.47,-298.99 1439.4,-306.02 1442.05,-299.54"/>
</a>
</g>
</g>
<!-- Node144 -->
<g id="Node000144" class="node">
<title>Node144</title>
<g id="a_Node000144"><a xlink:href="_quick_sort_8h.html" target="_top" xlink:title=" ">
<polygon fill="#fff0f0" stroke="red" points="1447.62,-218 1337.12,-218 1337.12,-198 1447.62,-198 1447.62,-218"/>
<text xml:space="preserve" text-anchor="middle" x="1392.38" y="-204.5" font-family="Helvetica,sans-Serif" font-size="10.00">Jolt/Core/QuickSort.h</text>
</a>
</g>
</g>
<!-- Node1&#45;&gt;Node144 -->
<g id="edge41_Node000001_Node000144" class="edge">
<title>Node1&#45;&gt;Node144</title>
<g id="a_edge41_Node000001_Node000144"><a xlink:title=" ">
<path fill="none" stroke="#63b8ff" d="M1579.29,-339.53C1592.15,-319.24 1609.58,-283.46 1591.38,-260 1575.11,-239.04 1510.56,-225.22 1459.33,-217.32"/>
<polygon fill="#63b8ff" stroke="#63b8ff" points="1459.86,-213.86 1449.46,-215.85 1458.83,-220.78 1459.86,-213.86"/>
</a>
</g>
</g>
<!-- Node146 -->
<g id="Node000146" class="node">
<title>Node146</title>
<g id="a_Node000146"><a xlink:href="_cast_result_8h.html" target="_top" xlink:title=" ">
<polygon fill="#fff0f0" stroke="red" points="1582.62,-298 1472.12,-298 1472.12,-266 1582.62,-266 1582.62,-298"/>
<text xml:space="preserve" text-anchor="start" x="1480.12" y="-284.5" font-family="Helvetica,sans-Serif" font-size="10.00">Jolt/Physics/Collision</text>
<text xml:space="preserve" text-anchor="middle" x="1527.38" y="-272.5" font-family="Helvetica,sans-Serif" font-size="10.00">/CastResult.h</text>
</a>
</g>
</g>
<!-- Node1&#45;&gt;Node146 -->
<g id="edge20_Node000001_Node000146" class="edge">
<title>Node1&#45;&gt;Node146</title>
<g id="a_edge20_Node000001_Node000146"><a xlink:title=" ">
<path fill="none" stroke="#63b8ff" d="M1559.68,-339.73C1554.46,-330.57 1547.7,-318.68 1541.7,-308.16"/>
<polygon fill="#63b8ff" stroke="#63b8ff" points="1544.8,-306.52 1536.81,-299.56 1538.71,-309.98 1544.8,-306.52"/>
</a>
</g>
</g>
<!-- Node147 -->
<g id="Node000147" class="node">
<title>Node147</title>
<g id="a_Node000147"><a xlink:href="_collide_convex_vs_triangles_8h.html" target="_top" xlink:title=" ">
<polygon fill="#fff0f0" stroke="red" points="1780.75,-298 1638,-298 1638,-266 1780.75,-266 1780.75,-298"/>
<text xml:space="preserve" text-anchor="start" x="1646" y="-284.5" font-family="Helvetica,sans-Serif" font-size="10.00">Jolt/Physics/Collision</text>
<text xml:space="preserve" text-anchor="middle" x="1709.38" y="-272.5" font-family="Helvetica,sans-Serif" font-size="10.00">/CollideConvexVsTriangles.h</text>
</a>
</g>
</g>
<!-- Node1&#45;&gt;Node147 -->
<g id="edge21_Node000001_Node000147" class="edge">
<title>Node1&#45;&gt;Node147</title>
<g id="a_edge21_Node000001_Node000147"><a xlink:title=" ">
<path fill="none" stroke="#63b8ff" d="M1598.62,-339.55C1619.16,-329.07 1646.55,-315.08 1668.96,-303.64"/>
<polygon fill="#63b8ff" stroke="#63b8ff" points="1670.51,-306.77 1677.83,-299.11 1667.33,-300.54 1670.51,-306.77"/>
</a>
</g>
</g>
<!-- Node112 -->
<g id="Node000112" class="node">
<title>Node112</title>
<g id="a_Node000112"><a xlink:href="_convex_shape_8h.html" target="_top" xlink:title=" ">
<polygon fill="#fff0f0" stroke="red" points="1868.12,-224 1748.62,-224 1748.62,-192 1868.12,-192 1868.12,-224"/>
<text xml:space="preserve" text-anchor="start" x="1756.62" y="-210.5" font-family="Helvetica,sans-Serif" font-size="10.00">Jolt/Physics/Collision</text>
<text xml:space="preserve" text-anchor="middle" x="1808.38" y="-198.5" font-family="Helvetica,sans-Serif" font-size="10.00">/Shape/ConvexShape.h</text>
</a>
</g>
</g>
<!-- Node1&#45;&gt;Node112 -->
<g id="edge25_Node000001_Node000112" class="edge">
<title>Node1&#45;&gt;Node112</title>
<g id="a_edge25_Node000001_Node000112"><a xlink:title=" ">
<path fill="none" stroke="#63b8ff" d="M1641.22,-346.75C1697.43,-338.87 1768.94,-325.05 1789.38,-304 1806.71,-286.15 1810.36,-257.2 1810.34,-235.94"/>
<polygon fill="#63b8ff" stroke="#63b8ff" points="1813.84,-235.86 1810.04,-225.97 1806.85,-236.07 1813.84,-235.86"/>
</a>
</g>
</g>
<!-- Node111 -->
<g id="Node000111" class="node">
<title>Node111</title>
<g id="a_Node000111"><a xlink:href="_manifold_between_two_faces_8h.html" target="_top" xlink:title=" ">
<polygon fill="#fff0f0" stroke="red" points="2132,-298 1984.75,-298 1984.75,-266 2132,-266 2132,-298"/>
<text xml:space="preserve" text-anchor="start" x="1992.75" y="-284.5" font-family="Helvetica,sans-Serif" font-size="10.00">Jolt/Physics/Collision</text>
<text xml:space="preserve" text-anchor="middle" x="2058.38" y="-272.5" font-family="Helvetica,sans-Serif" font-size="10.00">/ManifoldBetweenTwoFaces.h</text>
</a>
</g>
</g>
<!-- Node1&#45;&gt;Node111 -->
<g id="edge23_Node000001_Node000111" class="edge">
<title>Node1&#45;&gt;Node111</title>
<g id="a_edge23_Node000001_Node000111"><a xlink:title=" ">
<path fill="none" stroke="#63b8ff" d="M1641.21,-348.6C1722.97,-340.79 1859.38,-325.86 1975.38,-304 1980.19,-303.09 1985.14,-302.07 1990.11,-300.98"/>
<polygon fill="#63b8ff" stroke="#63b8ff" points="1990.54,-304.47 1999.5,-298.83 1988.98,-297.65 1990.54,-304.47"/>
</a>
</g>
</g>
<!-- Node148 -->
<g id="Node000148" class="node">
<title>Node148</title>
<g id="a_Node000148"><a xlink:href="_sim_shape_filter_wrapper_8h.html" target="_top" xlink:title=" ">
<polygon fill="#fff0f0" stroke="red" points="1966.38,-298 1836.38,-298 1836.38,-266 1966.38,-266 1966.38,-298"/>
<text xml:space="preserve" text-anchor="start" x="1844.38" y="-284.5" font-family="Helvetica,sans-Serif" font-size="10.00">Jolt/Physics/Collision</text>
<text xml:space="preserve" text-anchor="middle" x="1901.38" y="-272.5" font-family="Helvetica,sans-Serif" font-size="10.00">/SimShapeFilterWrapper.h</text>
</a>
</g>
</g>
<!-- Node1&#45;&gt;Node148 -->
<g id="edge26_Node000001_Node000148" class="edge">
<title>Node1&#45;&gt;Node148</title>
<g id="a_edge26_Node000001_Node000148"><a xlink:title=" ">
<path fill="none" stroke="#63b8ff" d="M1641.17,-341.62C1692.09,-331.96 1761.6,-318.17 1822.38,-304 1826.15,-303.12 1830.02,-302.19 1833.92,-301.23"/>
<polygon fill="#63b8ff" stroke="#63b8ff" points="1834.64,-304.66 1843.48,-298.82 1832.93,-297.87 1834.64,-304.66"/>
</a>
</g>
</g>
<!-- Node150 -->
<g id="Node000150" class="node">
<title>Node150</title>
<g id="a_Node000150"><a xlink:href="_internal_edge_removing_collector_8h.html" target="_top" xlink:title=" ">
<polygon fill="#fff0f0" stroke="red" points="1313,-298 1147.75,-298 1147.75,-266 1313,-266 1313,-298"/>
<text xml:space="preserve" text-anchor="start" x="1155.75" y="-284.5" font-family="Helvetica,sans-Serif" font-size="10.00">Jolt/Physics/Collision</text>
<text xml:space="preserve" text-anchor="middle" x="1230.38" y="-272.5" font-family="Helvetica,sans-Serif" font-size="10.00">/InternalEdgeRemovingCollector.h</text>
</a>
</g>
</g>
<!-- Node1&#45;&gt;Node150 -->
<g id="edge27_Node000001_Node000150" class="edge">
<title>Node1&#45;&gt;Node150</title>
<g id="a_edge27_Node000001_Node000150"><a xlink:title=" ">
<path fill="none" stroke="#63b8ff" d="M1495.64,-340.32C1446.62,-330.33 1380.55,-316.67 1322.38,-304 1317.78,-303 1313.06,-301.96 1308.31,-300.9"/>
<polygon fill="#63b8ff" stroke="#63b8ff" points="1309.17,-297.51 1298.65,-298.74 1307.64,-304.34 1309.17,-297.51"/>
</a>
</g>
</g>
<!-- Node152 -->
<g id="Node000152" class="node">
<title>Node152</title>
<g id="a_Node000152"><a xlink:href="_calculate_solver_steps_8h.html" target="_top" xlink:title=" ">
<polygon fill="white" stroke="#666666" points="1667,-88 1543.75,-88 1543.75,-56 1667,-56 1667,-88"/>
<text xml:space="preserve" text-anchor="start" x="1551.75" y="-74.5" font-family="Helvetica,sans-Serif" font-size="10.00">Jolt/Physics/Constraints</text>
<text xml:space="preserve" text-anchor="middle" x="1605.38" y="-62.5" font-family="Helvetica,sans-Serif" font-size="10.00">/CalculateSolverSteps.h</text>
</a>
</g>
</g>
<!-- Node1&#45;&gt;Node152 -->
<g id="edge30_Node000001_Node000152" class="edge">
<title>Node1&#45;&gt;Node152</title>
<g id="a_edge30_Node000001_Node000152"><a xlink:title=" ">
<path fill="none" stroke="#63b8ff" d="M1641.2,-353.89C1787.97,-350.89 2108.24,-340.22 2141.38,-304 2281.26,-151.11 1855.58,-95.08 1678.68,-78.72"/>
<polygon fill="#63b8ff" stroke="#63b8ff" points="1679.18,-75.25 1668.9,-77.84 1678.55,-82.22 1679.18,-75.25"/>
</a>
</g>
</g>
<!-- Node153 -->
<g id="Node000153" class="node">
<title>Node153</title>
<g id="a_Node000153"><a xlink:href="_axis_constraint_part_8h.html" target="_top" xlink:title=" ">
<polygon fill="#fff0f0" stroke="red" points="2338.12,-304 2188.62,-304 2188.62,-260 2338.12,-260 2338.12,-304"/>
<text xml:space="preserve" text-anchor="start" x="2196.62" y="-290.5" font-family="Helvetica,sans-Serif" font-size="10.00">Jolt/Physics/Constraints</text>
<text xml:space="preserve" text-anchor="start" x="2196.62" y="-278.5" font-family="Helvetica,sans-Serif" font-size="10.00">/ConstraintPart/AxisConstraint</text>
<text xml:space="preserve" text-anchor="middle" x="2263.38" y="-266.5" font-family="Helvetica,sans-Serif" font-size="10.00">Part.h</text>
</a>
</g>
</g>
<!-- Node1&#45;&gt;Node153 -->
<g id="edge32_Node000001_Node000153" class="edge">
<title>Node1&#45;&gt;Node153</title>
<g id="a_edge32_Node000001_Node000153"><a xlink:title=" ">
<path fill="none" stroke="#63b8ff" d="M1641.09,-352.35C1755.26,-347.42 1983.3,-334.41 2174.38,-304 2175.23,-303.86 2176.08,-303.72 2176.94,-303.58"/>
<polygon fill="#63b8ff" stroke="#63b8ff" points="2177.56,-307.03 2186.78,-301.81 2176.32,-300.14 2177.56,-307.03"/>
</a>
</g>
</g>
<!-- Node90 -->
<g id="Node000090" class="node">
<title>Node90</title>
<g id="a_Node000090"><a xlink:href="_determinism_log_8h.html" target="_top" xlink:title=" ">
<polygon fill="white" stroke="#666666" points="2484.62,-298 2356.12,-298 2356.12,-266 2484.62,-266 2484.62,-298"/>
<text xml:space="preserve" text-anchor="start" x="2364.12" y="-284.5" font-family="Helvetica,sans-Serif" font-size="10.00">Jolt/Physics/Determinism</text>
<text xml:space="preserve" text-anchor="middle" x="2420.38" y="-272.5" font-family="Helvetica,sans-Serif" font-size="10.00">Log.h</text>
</a>
</g>
</g>
<!-- Node1&#45;&gt;Node90 -->
<g id="edge33_Node000001_Node000090" class="edge">
<title>Node1&#45;&gt;Node90</title>
<g id="a_edge33_Node000001_Node000090"><a xlink:title=" ">
<path fill="none" stroke="#63b8ff" d="M1641.22,-355.42C1779.8,-355.08 2090.52,-348.82 2347.38,-304 2351.91,-303.21 2356.56,-302.24 2361.21,-301.17"/>
<polygon fill="#63b8ff" stroke="#63b8ff" points="2361.69,-304.65 2370.55,-298.85 2360.01,-297.86 2361.69,-304.65"/>
</a>
</g>
</g>
<!-- Node156 -->
<g id="Node000156" class="node">
<title>Node156</title>
<g id="a_Node000156"><a xlink:href="_soft_body_motion_properties_8h.html" target="_top" xlink:title=" ">
<polygon fill="#fff0f0" stroke="red" points="2644,-298 2502.75,-298 2502.75,-266 2644,-266 2644,-298"/>
<text xml:space="preserve" text-anchor="start" x="2510.75" y="-284.5" font-family="Helvetica,sans-Serif" font-size="10.00">Jolt/Physics/SoftBody</text>
<text xml:space="preserve" text-anchor="middle" x="2573.38" y="-272.5" font-family="Helvetica,sans-Serif" font-size="10.00">/SoftBodyMotionProperties.h</text>
</a>
</g>
</g>
<!-- Node1&#45;&gt;Node156 -->
<g id="edge34_Node000001_Node000156" class="edge">
<title>Node1&#45;&gt;Node156</title>
<g id="a_edge34_Node000001_Node000156"><a xlink:title=" ">
<path fill="none" stroke="#63b8ff" d="M1641.04,-352.89C1829.28,-347.11 2329.53,-329.75 2493.38,-304 2498.68,-303.17 2504.14,-302.13 2509.61,-300.96"/>
<polygon fill="#63b8ff" stroke="#63b8ff" points="2510.32,-304.39 2519.29,-298.75 2508.76,-297.57 2510.32,-304.39"/>
</a>
</g>
</g>
<!-- Node160 -->
<g id="Node000160" class="node">
<title>Node160</title>
<g id="a_Node000160"><a xlink:href="_soft_body_shape_8h.html" target="_top" xlink:title=" ">
<polygon fill="#fff0f0" stroke="red" points="2775.12,-298 2661.62,-298 2661.62,-266 2775.12,-266 2775.12,-298"/>
<text xml:space="preserve" text-anchor="start" x="2669.62" y="-284.5" font-family="Helvetica,sans-Serif" font-size="10.00">Jolt/Physics/SoftBody</text>
<text xml:space="preserve" text-anchor="middle" x="2718.38" y="-272.5" font-family="Helvetica,sans-Serif" font-size="10.00">/SoftBodyShape.h</text>
</a>
</g>
</g>
<!-- Node1&#45;&gt;Node160 -->
<g id="edge35_Node000001_Node000160" class="edge">
<title>Node1&#45;&gt;Node160</title>
<g id="a_edge35_Node000001_Node000160"><a xlink:title=" ">
<path fill="none" stroke="#63b8ff" d="M1641.26,-354.09C1851.81,-351.07 2458.33,-339.44 2653.38,-304 2657.23,-303.3 2661.16,-302.43 2665.1,-301.45"/>
<polygon fill="#63b8ff" stroke="#63b8ff" points="2665.95,-304.85 2674.67,-298.83 2664.1,-298.1 2665.95,-304.85"/>
</a>
</g>
</g>
<!-- Node161 -->
<g id="Node000161" class="node">
<title>Node161</title>
<g id="a_Node000161"><a xlink:href="_soft_body_contact_listener_8h.html" target="_top" xlink:title=" ">
<polygon fill="white" stroke="#666666" points="2929.75,-298 2793,-298 2793,-266 2929.75,-266 2929.75,-298"/>
<text xml:space="preserve" text-anchor="start" x="2801" y="-284.5" font-family="Helvetica,sans-Serif" font-size="10.00">Jolt/Physics/SoftBody</text>
<text xml:space="preserve" text-anchor="middle" x="2861.38" y="-272.5" font-family="Helvetica,sans-Serif" font-size="10.00">/SoftBodyContactListener.h</text>
</a>
</g>
</g>
<!-- Node1&#45;&gt;Node161 -->
<g id="edge36_Node000001_Node000161" class="edge">
<title>Node1&#45;&gt;Node161</title>
<g id="a_edge36_Node000001_Node000161"><a xlink:title=" ">
<path fill="none" stroke="#63b8ff" d="M1641.35,-354.08C1868.68,-350.89 2562.14,-338.52 2784.38,-304 2789.58,-303.19 2794.93,-302.16 2800.28,-300.99"/>
<polygon fill="#63b8ff" stroke="#63b8ff" points="2800.79,-304.47 2809.72,-298.77 2799.18,-297.65 2800.79,-304.47"/>
</a>
</g>
</g>
<!-- Node162 -->
<g id="Node000162" class="node">
<title>Node162</title>
<g id="a_Node000162"><a xlink:href="_ray_a_a_box_8h.html" target="_top" xlink:title=" ">
<polygon fill="white" stroke="#666666" points="3085.12,-292 2947.62,-292 2947.62,-272 3085.12,-272 3085.12,-292"/>
<text xml:space="preserve" text-anchor="middle" x="3016.38" y="-278.5" font-family="Helvetica,sans-Serif" font-size="10.00">Jolt/Geometry/RayAABox.h</text>
</a>
</g>
</g>
<!-- Node1&#45;&gt;Node162 -->
<g id="edge37_Node000001_Node000162" class="edge">
<title>Node1&#45;&gt;Node162</title>
<g id="a_edge37_Node000001_Node000162"><a xlink:title=" ">
<path fill="none" stroke="#63b8ff" d="M1641.35,-354.45C1887.33,-352.27 2684.8,-342.35 2938.38,-304 2951.01,-302.09 2964.53,-298.88 2976.71,-295.54"/>
<polygon fill="#63b8ff" stroke="#63b8ff" points="2977.34,-298.99 2985.99,-292.88 2975.41,-292.26 2977.34,-298.99"/>
</a>
</g>
</g>
<!-- Node163 -->
<g id="Node000163" class="node">
<title>Node163</title>
<g id="a_Node000163"><a xlink:href="_closest_point_8h.html" target="_top" xlink:title=" ">
<polygon fill="white" stroke="#666666" points="3247.88,-292 3102.88,-292 3102.88,-272 3247.88,-272 3247.88,-292"/>
<text xml:space="preserve" text-anchor="middle" x="3175.38" y="-278.5" font-family="Helvetica,sans-Serif" font-size="10.00">Jolt/Geometry/ClosestPoint.h</text>
</a>
</g>
</g>
<!-- Node1&#45;&gt;Node163 -->
<g id="edge38_Node000001_Node000163" class="edge">
<title>Node1&#45;&gt;Node163</title>
<g id="a_edge38_Node000001_Node000163"><a xlink:title=" ">
<path fill="none" stroke="#63b8ff" d="M1641.27,-354.69C1904.96,-353.24 2808.74,-345.28 3094.38,-304 3107.61,-302.09 3121.8,-298.84 3134.54,-295.45"/>
<polygon fill="#63b8ff" stroke="#63b8ff" points="3135.14,-298.92 3143.85,-292.88 3133.28,-292.17 3135.14,-298.92"/>
</a>
</g>
</g>
<!-- Node128 -->
<g id="Node000128" class="node">
<title>Node128</title>
<g id="a_Node000128"><a xlink:href="_temp_allocator_8h.html" target="_top" xlink:title=" ">
<polygon fill="#fff0f0" stroke="red" points="3395,-292 3265.75,-292 3265.75,-272 3395,-272 3395,-292"/>
<text xml:space="preserve" text-anchor="middle" x="3330.38" y="-278.5" font-family="Helvetica,sans-Serif" font-size="10.00">Jolt/Core/TempAllocator.h</text>
</a>
</g>
</g>
<!-- Node1&#45;&gt;Node128 -->
<g id="edge40_Node000001_Node000128" class="edge">
<title>Node1&#45;&gt;Node128</title>
<g id="a_edge40_Node000001_Node000128"><a xlink:title=" ">
<path fill="none" stroke="#63b8ff" d="M1641.23,-355.22C1922.65,-355.69 2938.91,-353.81 3257.38,-304 3269.1,-302.17 3281.61,-299.03 3292.89,-295.72"/>
<polygon fill="#63b8ff" stroke="#63b8ff" points="3293.71,-299.13 3302.25,-292.86 3291.66,-292.44 3293.71,-299.13"/>
</a>
</g>
</g>
<!-- Node164 -->
<g id="Node000164" class="node">
<title>Node164</title>
<g id="a_Node000164"><a xlink:href="_scope_exit_8h.html" target="_top" xlink:title=" ">
<polygon fill="#fff0f0" stroke="red" points="3525.38,-292 3413.38,-292 3413.38,-272 3525.38,-272 3525.38,-292"/>
<text xml:space="preserve" text-anchor="middle" x="3469.38" y="-278.5" font-family="Helvetica,sans-Serif" font-size="10.00">Jolt/Core/ScopeExit.h</text>
</a>
</g>
</g>
<!-- Node1&#45;&gt;Node164 -->
<g id="edge42_Node000001_Node000164" class="edge">
<title>Node1&#45;&gt;Node164</title>
<g id="a_edge42_Node000001_Node000164"><a xlink:title=" ">
<path fill="none" stroke="#63b8ff" d="M1641.14,-354.2C1960.37,-350.53 3228.78,-334.17 3404.38,-304 3414.46,-302.27 3425.12,-299.32 3434.84,-296.17"/>
<polygon fill="#63b8ff" stroke="#63b8ff" points="3435.95,-299.49 3444.28,-292.93 3433.68,-292.87 3435.95,-299.49"/>
</a>
</g>
</g>
<!-- Node46&#45;&gt;Node123 -->
<g id="edge3_Node000046_Node000123" class="edge">
<title>Node46&#45;&gt;Node123</title>
<g id="a_edge3_Node000046_Node000123"><a xlink:title=" ">
<path fill="none" stroke="#63b8ff" d="M221.75,-271.59C216.11,-262.14 207.18,-247.18 199.46,-234.26"/>
<polygon fill="#63b8ff" stroke="#63b8ff" points="202.52,-232.56 194.39,-225.77 196.51,-236.15 202.52,-232.56"/>
</a>
</g>
</g>
<!-- Node46&#45;&gt;Node129 -->
<g id="edge5_Node000046_Node000129" class="edge">
<title>Node46&#45;&gt;Node129</title>
<g id="a_edge5_Node000046_Node000129"><a xlink:title=" ">
<path fill="none" stroke="#63b8ff" d="M234.28,-271.75C242.18,-260.81 255.1,-241.84 263.38,-224 296.33,-152.98 256.78,-106.77 316.38,-56 348.42,-28.7 455.99,-17.96 534.56,-13.74"/>
<polygon fill="#63b8ff" stroke="#63b8ff" points="534.61,-17.24 544.42,-13.24 534.25,-10.25 534.61,-17.24"/>
</a>
</g>
</g>
<!-- Node123&#45;&gt;Node125 -->
<g id="edge4_Node000123_Node000125" class="edge">
<title>Node123&#45;&gt;Node125</title>
<g id="a_edge4_Node000123_Node000125"><a xlink:title=" ">
<path fill="none" stroke="#63b8ff" d="M173.01,-191.69C165.89,-182.1 156.66,-169.67 149.12,-159.52"/>
<polygon fill="#63b8ff" stroke="#63b8ff" points="151.97,-157.47 143.19,-151.53 146.34,-161.65 151.97,-157.47"/>
</a>
</g>
</g>
<!-- Node136&#45;&gt;Node137 -->
<g id="edge12_Node000136_Node000137" class="edge">
<title>Node136&#45;&gt;Node137</title>
<g id="a_edge12_Node000136_Node000137"><a xlink:title=" ">
<path fill="none" stroke="#63b8ff" d="M1027.56,-191.69C1023.2,-184.11 1017.81,-174.76 1012.87,-166.17"/>
<polygon fill="#63b8ff" stroke="#63b8ff" points="1015.92,-164.46 1007.9,-157.54 1009.85,-167.95 1015.92,-164.46"/>
</a>
</g>
</g>
<!-- Node137&#45;&gt;Node138 -->
<g id="edge13_Node000137_Node000138" class="edge">
<title>Node137&#45;&gt;Node138</title>
<g id="a_edge13_Node000137_Node000138"><a xlink:title=" ">
<path fill="none" stroke="#63b8ff" d="M979.12,-123.69C968.62,-115.34 955.41,-104.84 943.75,-95.56"/>
<polygon fill="#63b8ff" stroke="#63b8ff" points="946,-92.88 935.99,-89.4 941.64,-98.36 946,-92.88"/>
</a>
</g>
</g>
<!-- Node138&#45;&gt;Node129 -->
<g id="edge14_Node000138_Node000129" class="edge">
<title>Node138&#45;&gt;Node129</title>
<g id="a_edge14_Node000138_Node000129"><a xlink:title=" ">
<path fill="none" stroke="#63b8ff" d="M859.92,-59.64C808.29,-49.07 731.68,-33.38 679.52,-22.7"/>
<polygon fill="#63b8ff" stroke="#63b8ff" points="680.43,-19.32 669.93,-20.74 679.03,-26.17 680.43,-19.32"/>
</a>
</g>
</g>
<!-- Node143&#45;&gt;Node144 -->
<g id="edge19_Node000143_Node000144" class="edge">
<title>Node143&#45;&gt;Node144</title>
<g id="a_edge19_Node000143_Node000144"><a xlink:title=" ">
<path fill="none" stroke="#63b8ff" d="M1392.38,-265.73C1392.38,-255.18 1392.38,-241.03 1392.38,-229.5"/>
<polygon fill="#63b8ff" stroke="#63b8ff" points="1395.88,-229.82 1392.38,-219.82 1388.88,-229.82 1395.88,-229.82"/>
</a>
</g>
</g>
<!-- Node147&#45;&gt;Node112 -->
<g id="edge22_Node000147_Node000112" class="edge">
<title>Node147&#45;&gt;Node112</title>
<g id="a_edge22_Node000147_Node000112"><a xlink:title=" ">
<path fill="none" stroke="#63b8ff" d="M1730.37,-265.73C1744.19,-255.68 1762.5,-242.36 1777.91,-231.15"/>
<polygon fill="#63b8ff" stroke="#63b8ff" points="1779.82,-234.1 1785.84,-225.39 1775.7,-228.44 1779.82,-234.1"/>
</a>
</g>
</g>
<!-- Node111&#45;&gt;Node112 -->
<g id="edge24_Node000111_Node000112" class="edge">
<title>Node111&#45;&gt;Node112</title>
<g id="a_edge24_Node000111_Node000112"><a xlink:title=" ">
<path fill="none" stroke="#63b8ff" d="M2004.74,-265.55C1966.11,-254.43 1913.78,-239.36 1872.87,-227.57"/>
<polygon fill="#63b8ff" stroke="#63b8ff" points="1873.95,-224.24 1863.37,-224.84 1872.01,-230.97 1873.95,-224.24"/>
</a>
</g>
</g>
<!-- Node150&#45;&gt;Node136 -->
<g id="edge29_Node000150_Node000136" class="edge">
<title>Node150&#45;&gt;Node136</title>
<g id="a_edge29_Node000150_Node000136"><a xlink:title=" ">
<path fill="none" stroke="#63b8ff" d="M1188.76,-265.55C1159.48,-254.69 1120.07,-240.06 1088.67,-228.41"/>
<polygon fill="#63b8ff" stroke="#63b8ff" points="1089.94,-225.15 1079.34,-224.95 1087.5,-231.71 1089.94,-225.15"/>
</a>
</g>
</g>
<!-- Node150&#45;&gt;Node144 -->
<g id="edge28_Node000150_Node000144" class="edge">
<title>Node150&#45;&gt;Node144</title>
<g id="a_edge28_Node000150_Node000144"><a xlink:title=" ">
<path fill="none" stroke="#63b8ff" d="M1265.13,-265.55C1293.53,-252.93 1333.33,-235.24 1360.82,-223.02"/>
<polygon fill="#63b8ff" stroke="#63b8ff" points="1361.97,-226.35 1369.68,-219.09 1359.12,-219.95 1361.97,-226.35"/>
</a>
</g>
</g>
<!-- Node152&#45;&gt;Node129 -->
<g id="edge31_Node000152_Node000129" class="edge">
<title>Node152&#45;&gt;Node129</title>
<g id="a_edge31_Node000152_Node000129"><a xlink:title=" ">
<path fill="none" stroke="#63b8ff" d="M1543.51,-67.22C1374.82,-56.93 906.37,-28.33 710.37,-16.37"/>
<polygon fill="#63b8ff" stroke="#63b8ff" points="710.69,-12.88 700.5,-15.77 710.27,-19.87 710.69,-12.88"/>
</a>
</g>
</g>
</g>
</svg>
