<svg xmlns="http://www.w3.org/2000/svg" xmlns:xlink="http://www.w3.org/1999/xlink" version="1.1" width="3170" height="1182" style="width: 3170px; height: 1182px; background: #ffffff" viewBox="0 0 3170 1182"><style id="v-3" type="text/css">        .joint-element .scalable * {            vector-effect: non-scaling-stroke;        }    </style><defs joint-selector="defs"><marker id="v-21252848929" orient="auto" overflow="visible" markerUnits="userSpaceOnUse"><path id="v-97" stroke="#444444" fill="#444444" transform="rotate(180)" d="M 20 -10 0 0 20 10 Z"></path></marker></defs><g joint-selector="layers"  transform="matrix(1,0,0,1,0,0)"><g  style="pointer-events: none;"></g><g ></g><g  style="user-select: none;"><!--z-index:1--><!--z-index:2--><!--z-index:3--><!--z-index:4--><!--z-index:5--><!--z-index:6--><!--z-index:7--><!--z-index:8--><!--z-index:9--><!--z-index:10--><!--z-index:11--><!--z-index:12--><g   id="j_15"  transform="translate(20,1138)"><g id="v-169"><text  id="v-170" font-size="24px" xml:space="preserve" y="0.8em" font-weight="normal" text-anchor="start" fill="#444444" pointer-events="none" display="block" font-family="Tahoma, Verdana, Helvetica, Arial"><tspan dy="0" >Tuesday, May 5, 2026 at 1:00 PM Central European Summer Time</tspan></text></g></g><!--z-index:13--><g   id="j_14"  transform="translate(20,1092)"><g id="v-167"><text  id="v-168" font-size="36px" xml:space="preserve" y="0.8em" font-weight="normal" text-anchor="start" fill="#444444" pointer-events="none" display="block" font-family="Tahoma, Verdana, Helvetica, Arial"><tspan dy="0" >Jolt Physics - C4 Level 1: System Context</tspan></text></g></g><!--z-index:14--><g   id="j_16"  transform="translate(200,471)" style=""><g  id="v-177" style="opacity: 1;"><rect  x="0" y="160" width="400" height="240" rx="70" id="v-179" stroke-width="2" pointer-events="visiblePainted" fill="#999999" stroke="#8a8a8a" stroke-dasharray="" style="fill: rgb(153, 153, 153); stroke: rgb(138, 138, 138);"></rect><circle  cx="200" cy="88.88888888888889" r="88.88888888888889" id="v-178" stroke-width="2" pointer-events="visiblePainted" fill="#999999" stroke="#8a8a8a" stroke-dasharray="" style="fill: rgb(153, 153, 153); stroke: rgb(138, 138, 138);"></circle><line  x1="80" y1="266.6666666666667" x2="80" y2="400" id="v-185" stroke="#8a8a8a" stroke-width="1" stroke-dasharray="" style="stroke: rgb(138, 138, 138);"></line><line  x1="320" y1="266.6666666666667" x2="320" y2="400" id="v-186" stroke="#8a8a8a" stroke-width="1" stroke-dasharray="" style="stroke: rgb(138, 138, 138);"></line><text  id="v-180" font-size="33.599999999999994px" xml:space="preserve" y="202.5" font-weight="bold" text-anchor="middle" pointer-events="visible" font-family="Tahoma, Verdana, Helvetica, Arial" fill="#ffffff" dominant-baseline="hanging" transform="matrix(1,0,0,1,200,0)" style="fill: rgb(255, 255, 255);"><tspan dy="0" >Game Developer</tspan></text><text  id="v-181" font-size="16.799999999999997px" xml:space="preserve" y="244.1" text-anchor="middle" font-family="Tahoma, Verdana, Helvetica, Arial" fill="#ffffff" dominant-baseline="hanging" transform="matrix(1,0,0,1,200,0)" style="display: block; fill: rgb(255, 255, 255);"><tspan dy="0" >[Person]</tspan></text><text  id="v-182" font-size="24px" xml:space="preserve" y="275.9" text-anchor="middle" font-family="Tahoma, Verdana, Helvetica, Arial" fill="#ffffff" dominant-baseline="hanging" transform="matrix(1,0,0,1,200,0)" style="display: block; fill: rgb(255, 255, 255);"><tspan dy="0" >Integrates Jolt Physics into a</tspan><tspan dy="1.2em" x="0" >game engine, VR application</tspan><tspan dy="1.2em" x="0" >etc.</tspan></text><g  id="v-183" font-weight="normal" text-anchor="middle" color="#ffffff" transform="matrix(1,0,0,1,197.5,368)" display="none" style="fill: rgb(255, 255, 255);"><g ></g><g ></g><g ></g><g ></g></g><image  id="v-184"></image></g></g><!--z-index:15--><g   id="j_17"  transform="translate(940,641)" style=""><g  id="v-193" style="opacity: 1;"><rect  id="v-194" rx="20" ry="20" stroke-width="2" pointer-events="visiblePainted" fill="#999999" stroke="#8a8a8a" stroke-dasharray="" width="450" height="300" style="fill: rgb(153, 153, 153); stroke: rgb(138, 138, 138);"></rect><text  id="v-195" font-size="33.599999999999994px" xml:space="preserve" y="52.34" font-weight="bold" text-anchor="middle" pointer-events="visible" font-family="Tahoma, Verdana, Helvetica, Arial" fill="#ffffff" dominant-baseline="hanging" transform="matrix(1,0,0,1,225,0)" style="fill: rgb(255, 255, 255);"><tspan dy="0" >Game/Simulation</tspan><tspan dy="1.2em" x="0" >Application</tspan></text><text  id="v-196" font-size="16.799999999999997px" xml:space="preserve" y="134.26" text-anchor="middle" font-family="Tahoma, Verdana, Helvetica, Arial" fill="#ffffff" dominant-baseline="hanging" transform="matrix(1,0,0,1,225,0)" style="display: block; fill: rgb(255, 255, 255);"><tspan dy="0" >[Software System]</tspan></text><text  id="v-197" font-size="24px" xml:space="preserve" y="166.06" text-anchor="middle" font-family="Tahoma, Verdana, Helvetica, Arial" fill="#ffffff" dominant-baseline="hanging" transform="matrix(1,0,0,1,225,0)" style="display: block; fill: rgb(255, 255, 255);"><tspan dy="0" >External host application or engine</tspan><tspan dy="1.2em" x="0" >that embeds Jolt Physics and drives</tspan><tspan dy="1.2em" x="0" >the simulation.</tspan></text><g  id="v-198" color="#ffffff" transform="matrix(1,0,0,1,222.5,268)" display="none" style="fill: rgb(255, 255, 255);"><g ></g><g ></g><g ></g><g ></g></g><image  id="v-199"></image></g></g><!--z-index:16--><g   id="j_18"  transform="translate(940,160)" style=""><g  id="v-206" style="opacity: 1;"><rect  id="v-207" rx="20" ry="20" stroke-width="2" pointer-events="visiblePainted" fill="#999999" stroke="#8a8a8a" stroke-dasharray="" width="450" height="300" style="fill: rgb(153, 153, 153); stroke: rgb(138, 138, 138);"></rect><text  id="v-208" font-size="33.599999999999994px" xml:space="preserve" y="86.9" font-weight="bold" text-anchor="middle" pointer-events="visible" font-family="Tahoma, Verdana, Helvetica, Arial" fill="#ffffff" dominant-baseline="hanging" transform="matrix(1,0,0,1,225,0)" style="fill: rgb(255, 255, 255);"><tspan dy="0" >C++ Build Toolchain</tspan></text><text  id="v-209" font-size="16.799999999999997px" xml:space="preserve" y="128.5" text-anchor="middle" font-family="Tahoma, Verdana, Helvetica, Arial" fill="#ffffff" dominant-baseline="hanging" transform="matrix(1,0,0,1,225,0)" style="display: block; fill: rgb(255, 255, 255);"><tspan dy="0" >[Software System]</tspan></text><text  id="v-210" font-size="24px" xml:space="preserve" y="160.3" text-anchor="middle" font-family="Tahoma, Verdana, Helvetica, Arial" fill="#ffffff" dominant-baseline="hanging" transform="matrix(1,0,0,1,225,0)" style="display: block; fill: rgb(255, 255, 255);"><tspan dy="0" >CMake, compiler, linker, and</tspan><tspan dy="1.2em" x="0" >platform used to build and link Jolt.</tspan></text><g  id="v-211" color="#ffffff" transform="matrix(1,0,0,1,222.5,268)" display="none" style="fill: rgb(255, 255, 255);"><g ></g><g ></g><g ></g><g ></g></g><image  id="v-212"></image></g></g><!--z-index:17--><g   id="j_19"  transform="translate(2520,400)" style=""><g  id="v-219" style="opacity: 1;"><rect  id="v-220" rx="20" ry="20" stroke-width="2" pointer-events="visiblePainted" fill="#999999" stroke="#8a8a8a" stroke-dasharray="" width="450" height="300" style="fill: rgb(153, 153, 153); stroke: rgb(138, 138, 138);"></rect><text  id="v-221" font-size="33.599999999999994px" xml:space="preserve" y="32.18000000000002" font-weight="bold" text-anchor="middle" pointer-events="visible" font-family="Tahoma, Verdana, Helvetica, Arial" fill="#ffffff" dominant-baseline="hanging" transform="matrix(1,0,0,1,225,0)" style="fill: rgb(255, 255, 255);"><tspan dy="0" >Operating</tspan><tspan dy="1.2em" x="0" >System/Hardware</tspan><tspan dy="1.2em" x="0" >Platform</tspan></text><text  id="v-222" font-size="16.799999999999997px" xml:space="preserve" y="154.42000000000002" text-anchor="middle" font-family="Tahoma, Verdana, Helvetica, Arial" fill="#ffffff" dominant-baseline="hanging" transform="matrix(1,0,0,1,225,0)" style="display: block; fill: rgb(255, 255, 255);"><tspan dy="0" >[Software System]</tspan></text><text  id="v-223" font-size="24px" xml:space="preserve" y="186.21999999999997" text-anchor="middle" font-family="Tahoma, Verdana, Helvetica, Arial" fill="#ffffff" dominant-baseline="hanging" transform="matrix(1,0,0,1,225,0)" style="display: block; fill: rgb(255, 255, 255);"><tspan dy="0" >Provides CPU execution, memory,</tspan><tspan dy="1.2em" x="0" >threading and optional platform</tspan><tspan dy="1.2em" x="0" >APIs.</tspan></text><g  id="v-224" color="#ffffff" transform="matrix(1,0,0,1,222.5,268)" display="none" style="fill: rgb(255, 255, 255);"><g ></g><g ></g><g ></g><g ></g></g><image  id="v-225"></image></g></g><!--z-index:18--><g   id="j_20"  transform="translate(1730,400)" style=""><g  id="v-229" style="opacity: 1;"><rect  id="v-230" rx="20" ry="20" stroke-width="2" pointer-events="visiblePainted" fill="#1168bd" stroke="#0f5eaa" stroke-dasharray="" width="450" height="300" style="fill: rgb(17, 104, 189); stroke: rgb(15, 94, 170);"></rect><text  id="v-231" font-size="33.599999999999994px" xml:space="preserve" y="86.9" font-weight="bold" text-anchor="middle" pointer-events="visible" font-family="Tahoma, Verdana, Helvetica, Arial" fill="#ffffff" dominant-baseline="hanging" transform="matrix(1,0,0,1,225,0)" style="fill: rgb(255, 255, 255);"><tspan dy="0" >Jolt Physics</tspan></text><text  id="v-232" font-size="16.799999999999997px" xml:space="preserve" y="128.5" text-anchor="middle" font-family="Tahoma, Verdana, Helvetica, Arial" fill="#ffffff" dominant-baseline="hanging" transform="matrix(1,0,0,1,225,0)" style="display: block; fill: rgb(255, 255, 255);"><tspan dy="0" >[Software System]</tspan></text><text  id="v-233" font-size="24px" xml:space="preserve" y="160.3" text-anchor="middle" font-family="Tahoma, Verdana, Helvetica, Arial" fill="#ffffff" dominant-baseline="hanging" transform="matrix(1,0,0,1,225,0)" style="display: block; fill: rgb(255, 255, 255);"><tspan dy="0" >C++17 rigid-body physics and</tspan><tspan dy="1.2em" x="0" >collision-detection library.</tspan></text><g  id="v-234" color="#ffffff" transform="matrix(1,0,0,1,210,268)" display="none" style="fill: rgb(255, 255, 255);"><g  transform="translate(5 0)"><svg xmlns="http://www.w3.org/2000/svg" width="20" height="20" fill="currentColor" viewBox="0 0 16 16"><path fill-rule="evenodd" d="M6.5 12a5.5 5.5 0 1 0 0-11 5.5 5.5 0 0 0 0 11zM13 6.5a6.5 6.5 0 1 1-13 0 6.5 6.5 0 0 1 13 0z"></path><path d="M10.344 11.742c.03.04.062.078.098.115l3.85 3.85a1 1 0 0 0 1.415-1.414l-3.85-3.85a1.007 1.007 0 0 0-.115-.1 6.538 6.538 0 0 1-1.398 1.4z"></path><path fill-rule="evenodd" d="M6.5 3a.5.5 0 0 1 .5.5V6h2.5a.5.5 0 0 1 0 1H7v2.5a.5.5 0 0 1-1 0V7H3.5a.5.5 0 0 1 0-1H6V3.5a.5.5 0 0 1 .5-.5z"></path></svg></g><g ></g><g ></g><g ></g></g><image  id="v-235"></image></g></g><!--z-index:19--><g   id="j_21"  style="opacity: 1;"><path fill="none" cursor="pointer" stroke="transparent" stroke-linecap="round" joint-selector="wrapper" id="v-250" stroke-width="10" stroke-linejoin="round" d="M 1390 310 L 1550 310 C 1556.6666666666665 310 1563 311.66666666666663 1569 315 L 1730 413.29" style="stroke-width: 10px;"></path><path fill="none" pointer-events="none" joint-selector="line" id="v-249" stroke="#444444" stroke-width="2" stroke-linejoin="round" stroke-dasharray="8 8" d="M 1390 310 L 1550 310 C 1556.6666666666665 310 1563 311.66666666666663 1569 315 L 1730 413.29" marker-end="url(#v-21252848929)"></path><g id="v-239" ><g id="v-240"  label-idx="0" cursor="move" transform="matrix(1,0,0,1,1559.6015625,297.8112487792969)" style="cursor: default;"><rect joint-selector="rect" id="v-244" fill="#ffffff" rx="3" ry="3" x="-81.92436218261719" y="-16.431840896606445" width="164.33383178710938" height="28.606964111328125" pointer-events="none"  style="display: block;"></rect><text joint-selector="text" id="v-243" font-size="24px" xml:space="preserve" fill="#444444" text-anchor="middle" pointer-events="none" font-family="Tahoma, Verdana, Helvetica, Arial" font-weight="normal"  style="display: block;"><tspan dy="0.3em" >Builds and links</tspan></text></g><g id="v-241"  label-idx="1" cursor="move" transform="matrix(1,0,0,1,1559.6015625,328.21124267578125)" style="cursor: default;"><rect joint-selector="rect" id="v-246" fill="#ffffff" rx="3" ry="3" x="-60.50800704956055" y="-12.37293529510498" width="121.0160140991211" height="21.14427947998047"  pointer-events="none" style="display: block;"></rect><text joint-selector="text" id="v-245" font-size="16.799999999999997px" xml:space="preserve" fill="#444444" text-anchor="middle" pointer-events="none" font-family="Tahoma, Verdana, Helvetica, Arial" font-weight="normal"  style="display: block;"><tspan dy="0.3em" >[CMake/C++17]</tspan></text></g><g id="v-242"  label-idx="2" cursor="move" transform="matrix(1,0,0,1,1562.742919921875,342.6850280761719)" style="cursor: default;"><rect joint-selector="rect" id="v-248" fill="#ffffff" rx="3" ry="3" x="0" y="0" width="0" height="0"  display="none"></rect><text joint-selector="text" id="v-247" fill="#000000" font-size="14" text-anchor="middle" text-vertical-anchor="middle" pointer-events="none"></text></g></g></g><!--z-index:20--><g   id="j_22"  style="opacity: 1;"><path fill="none" cursor="pointer" stroke="transparent" stroke-linecap="round" joint-selector="wrapper" id="v-268" stroke-width="10" stroke-linejoin="round" d="M 2180 550 L 2520 550" style="stroke-width: 10px;"></path><path fill="none" pointer-events="none" joint-selector="line" id="v-267" stroke="#444444" stroke-width="2" stroke-linejoin="round" stroke-dasharray="8 8" d="M 2180 550 L 2520 550" marker-end="url(#v-21252848929)"></path><g id="v-257" ><g id="v-258"  label-idx="0" cursor="move" transform="matrix(1,0,0,1,2350,536.5999755859375)" style="cursor: default;"><rect joint-selector="rect" id="v-262" fill="#ffffff" rx="3" ry="3" x="-69.4865493774414" y="-30.83184051513672" width="138.9730987548828" height="57.40696716308594" pointer-events="none"  style="display: block;"></rect><text joint-selector="text" id="v-261" font-size="24px" xml:space="preserve" fill="#444444" text-anchor="middle" pointer-events="none" font-family="Tahoma, Verdana, Helvetica, Arial" font-weight="normal"  style="display: block;"><tspan dy="-0.3em" >Uses runtime</tspan><tspan dy="1.2em" x="0" >services</tspan></text></g><g id="v-259"  label-idx="1" cursor="move" transform="matrix(1,0,0,1,2350,581.4000244140625)" style="cursor: default;"><rect joint-selector="rect" id="v-264" fill="#ffffff" rx="3" ry="3" x="-87.60883331298828" y="-12.37293529510498" width="175.21766662597656" height="21.14427947998047"  pointer-events="none" style="display: block;"></rect><text joint-selector="text" id="v-263" font-size="16.799999999999997px" xml:space="preserve" fill="#444444" text-anchor="middle" pointer-events="none" font-family="Tahoma, Verdana, Helvetica, Arial" font-weight="normal"  style="display: block;"><tspan dy="0.3em" >[Threads, memory etc.]</tspan></text></g><g id="v-260"  label-idx="2" cursor="move" transform="matrix(1,0,0,1,2340,589.7999877929688)" style="cursor: default;"><rect joint-selector="rect" id="v-266" fill="#ffffff" rx="3" ry="3" x="0" y="-5.684341886080802e-14" width="0" height="0"  display="none"></rect><text joint-selector="text" id="v-265" fill="#000000" font-size="14" text-anchor="middle" text-vertical-anchor="middle" pointer-events="none"></text></g></g></g><!--z-index:21--><g   id="j_23"  style="opacity: 1;"><path fill="none" cursor="pointer" stroke="transparent" stroke-linecap="round" joint-selector="wrapper" id="v-280" stroke-width="10" stroke-linejoin="round" d="M 600 606.03 L 760 554 C 766.6666666666665 551.8666666666667 773.3333333333333 550.8666666666667 780 551 L 1730 550.15"></path><path fill="none" pointer-events="none" joint-selector="line" id="v-279" stroke="#444444" stroke-width="2" stroke-linejoin="round" stroke-dasharray="8 8" d="M 600 606.03 L 760 554 C 766.6666666666665 551.8666666666667 773.3333333333333 550.8666666666667 780 551 L 1730 550.15" marker-end="url(#v-21252848929)"></path><g id="v-272" ><g id="v-273"  label-idx="0" cursor="move" transform="matrix(1,0,0,1,1165.1072998046875,550.6554565429688)" style="cursor: default;"><rect joint-selector="rect" id="v-276" fill="#ffffff" rx="3" ry="3" x="-88.036376953125" y="-45.231842041015625" width="176.07275390625" height="86.20697021484375" pointer-events="none"  style="display: block;"></rect><text joint-selector="text" id="v-275" font-size="24px" xml:space="preserve" fill="#444444" text-anchor="middle" pointer-events="none" font-family="Tahoma, Verdana, Helvetica, Arial" font-weight="normal"  style="display: block;"><tspan dy="-0.8999999999999999em" >Uses public C++</tspan><tspan dy="1.2em" x="0" >API and</tspan><tspan dy="1.2em" x="0" >documentation</tspan></text></g><g id="v-274"  label-idx="1" cursor="move" transform="matrix(1,0,0,1,1155.1072998046875,591.4554443359375)" style="cursor: default;"><rect joint-selector="rect" id="v-278" fill="#ffffff" rx="3" ry="3" x="0" y="0" width="0" height="0"  display="none"></rect><text joint-selector="text" id="v-277" fill="#000000" font-size="14" text-anchor="middle" text-vertical-anchor="middle" pointer-events="none"></text></g></g></g><!--z-index:22--><g   id="j_24"  style="opacity: 1;"><path fill="none" cursor="pointer" stroke="transparent" stroke-linecap="round" joint-selector="wrapper" id="v-292" stroke-width="10" stroke-linejoin="round" d="M 600 736.19 L 760 789 C 766.6666666666665 790.7333333333333 773.3333333333333 791.7333333333333 780 792 L 940 791.34" style="stroke-width: 10px;"></path><path fill="none" pointer-events="none" joint-selector="line" id="v-291" stroke="#444444" stroke-width="2" stroke-linejoin="round" stroke-dasharray="8 8" d="M 600 736.19 L 760 789 C 766.6666666666665 790.7333333333333 773.3333333333333 791.7333333333333 780 792 L 940 791.34" marker-end="url(#v-21252848929)"></path><g id="v-284" ><g id="v-285"  label-idx="0" cursor="move" transform="matrix(1,0,0,1,770.078125,791.0617065429688)" style="cursor: default;"><rect joint-selector="rect" id="v-288" fill="#ffffff" rx="3" ry="3" x="-71.25505065917969" y="-30.83184051513672" width="142.51010131835938" height="57.40696716308594" pointer-events="none"  style="display: block;"></rect><text joint-selector="text" id="v-287" font-size="24px" xml:space="preserve" fill="#444444" text-anchor="middle" pointer-events="none" font-family="Tahoma, Verdana, Helvetica, Arial" font-weight="normal"  style="display: block;"><tspan dy="-0.3em" >Develops and</tspan><tspan dy="1.2em" x="0" >configures</tspan></text></g><g id="v-286"  label-idx="1" cursor="move" transform="matrix(1,0,0,1,760.078125,817.461669921875)" style="cursor: default;"><rect joint-selector="rect" id="v-290" fill="#ffffff" rx="3" ry="3" x="0" y="0" width="0" height="0"  display="none"></rect><text joint-selector="text" id="v-289" fill="#000000" font-size="14" text-anchor="middle" text-vertical-anchor="middle" pointer-events="none"></text></g></g></g><!--z-index:23--><g   id="j_25"  style="opacity: 1;"><path fill="none" cursor="pointer" stroke="transparent" stroke-linecap="round" joint-selector="wrapper" id="v-310" stroke-width="10" stroke-linejoin="round" d="M 1390 791.34 L 1550 792 C 1556.6666666666665 791.7333333333333 1563 789.7333333333333 1569 786 L 1730 687.62" style="stroke-width: 10px;"></path><path fill="none" pointer-events="none" joint-selector="line" id="v-309" stroke="#444444" stroke-width="2" stroke-linejoin="round" stroke-dasharray="8 8" d="M 1390 791.34 L 1550 792 C 1556.6666666666665 791.7333333333333 1563 789.7333333333333 1569 786 L 1730 687.62" marker-end="url(#v-21252848929)"></path><g id="v-299" ><g id="v-300"  label-idx="0" cursor="move" transform="matrix(1,0,0,1,1559.712890625,776.9116821289062)" style="cursor: default;"><rect joint-selector="rect" id="v-304" fill="#ffffff" rx="3" ry="3" x="-92.56452178955078" y="-45.231842041015625" width="185.6083984375" height="86.20697021484375" pointer-events="none"  style="display: block;"></rect><text joint-selector="text" id="v-303" font-size="24px" xml:space="preserve" fill="#444444" text-anchor="middle" pointer-events="none" font-family="Tahoma, Verdana, Helvetica, Arial" font-weight="normal"  style="display: block;"><tspan dy="-0.8999999999999999em" >Embeds and uses</tspan><tspan dy="1.2em" x="0" >physics</tspan><tspan dy="1.2em" x="0" >functionality</tspan></text></g><g id="v-301"  label-idx="1" cursor="move" transform="matrix(1,0,0,1,1559.712890625,836.1116943359375)" style="cursor: default;"><rect joint-selector="rect" id="v-306" fill="#ffffff" rx="3" ry="3" x="-98.45304870605469" y="-12.37293529510498" width="196.90609741210938" height="21.14427947998047"  pointer-events="none" style="display: block;"></rect><text joint-selector="text" id="v-305" font-size="16.799999999999997px" xml:space="preserve" fill="#444444" text-anchor="middle" pointer-events="none" font-family="Tahoma, Verdana, Helvetica, Arial" font-weight="normal"  style="display: block;"><tspan dy="0.3em" >[C++ API/in-process calls]</tspan></text></g><g id="v-302"  label-idx="2" cursor="move" transform="matrix(1,0,0,1,1562.637939453125,837.9769897460938)" style="cursor: default;"><rect joint-selector="rect" id="v-308" fill="#ffffff" rx="3" ry="3" x="0" y="0" width="0" height="0"  display="none"></rect><text joint-selector="text" id="v-307" fill="#000000" font-size="14" text-anchor="middle" text-vertical-anchor="middle" pointer-events="none"></text></g></g></g><!--z-index:24--><!--z-index:25--><!--z-index:26--></g><g  style="user-select: none;"></g><g ></g><g  display="none"></g></g></svg>