<svg xmlns="http://www.w3.org/2000/svg" xmlns:xlink="http://www.w3.org/1999/xlink" version="1.1" width="3170" height="1182" style="width: 3170px; height: 1182px; background: #ffffff" viewBox="0 0 3170 1182"><style id="v-3" type="text/css">        .joint-element .scalable * {            vector-effect: non-scaling-stroke;        }    </style><defs joint-selector="defs"><marker id="v-21252848929" orient="auto" overflow="visible" markerUnits="userSpaceOnUse"><path id="v-89" stroke="#444444" fill="#444444" transform="rotate(180)" d="M 20 -10 0 0 20 10 Z"></path></marker></defs><g joint-selector="layers"  transform="matrix(1,0,0,1,0,0)"><g  style="pointer-events: none;"></g><g ></g><g  style="user-select: none;"><!--z-index:1--><!--z-index:2--><!--z-index:3--><!--z-index:4--><!--z-index:5--><!--z-index:6--><!--z-index:7--><!--z-index:8--><!--z-index:9--><!--z-index:10--><!--z-index:11--><!--z-index:12--><g   id="j_27"  transform="translate(20,1138)"><g id="v-310"><text  id="v-311" font-size="24px" xml:space="preserve" y="0.8em" font-weight="normal" text-anchor="start" fill="#444444" pointer-events="none" display="block" font-family="Tahoma, Verdana, Helvetica, Arial"><tspan dy="0"  display="block">Tuesday, May 5, 2026 at 10:19 AM Central European Summer Time</tspan></text></g></g><!--z-index:13--><g   id="j_26"  transform="translate(20,1092)"><g id="v-308"><text  id="v-309" font-size="36px" xml:space="preserve" y="0.8em" font-weight="normal" text-anchor="start" fill="#444444" pointer-events="none" display="block" font-family="Tahoma, Verdana, Helvetica, Arial"><tspan dy="0"  display="block">Jolt Physics - C4 Level 1: System Context</tspan></text></g></g><!--z-index:14--><g   id="j_28"  transform="translate(200,471)" style=""><g  id="v-318" style="opacity: 1;"><rect  x="0" y="160" width="400" height="240" rx="70" id="v-320" stroke-width="2" pointer-events="visiblePainted" fill="#08427b" stroke="#073b6f" stroke-dasharray="" style="fill: rgb(8, 66, 123); stroke: rgb(7, 59, 111);"></rect><circle  cx="200" cy="88.88888888888889" r="88.88888888888889" id="v-319" stroke-width="2" pointer-events="visiblePainted" fill="#08427b" stroke="#073b6f" stroke-dasharray="" style="fill: rgb(8, 66, 123); stroke: rgb(7, 59, 111);"></circle><line  x1="80" y1="266.6666666666667" x2="80" y2="400" id="v-326" stroke="#073b6f" stroke-width="1" stroke-dasharray="" style="stroke: rgb(7, 59, 111);"></line><line  x1="320" y1="266.6666666666667" x2="320" y2="400" id="v-327" stroke="#073b6f" stroke-width="1" stroke-dasharray="" style="stroke: rgb(7, 59, 111);"></line><text  id="v-321" font-size="33.599999999999994px" xml:space="preserve" y="202.5" font-weight="bold" text-anchor="middle" pointer-events="visible" font-family="Tahoma, Verdana, Helvetica, Arial" fill="#ffffff" dominant-baseline="hanging" transform="matrix(1,0,0,1,200,0)" style="fill: rgb(255, 255, 255);"><tspan dy="0" >Game Developer</tspan></text><text  id="v-322" font-size="16.799999999999997px" xml:space="preserve" y="244.1" text-anchor="middle" font-family="Tahoma, Verdana, Helvetica, Arial" fill="#ffffff" dominant-baseline="hanging" transform="matrix(1,0,0,1,200,0)" style="display: block; fill: rgb(255, 255, 255);"><tspan dy="0" >[Person]</tspan></text><text  id="v-323" font-size="24px" xml:space="preserve" y="275.9" text-anchor="middle" font-family="Tahoma, Verdana, Helvetica, Arial" fill="#ffffff" dominant-baseline="hanging" transform="matrix(1,0,0,1,200,0)" style="display: block; fill: rgb(255, 255, 255);"><tspan dy="0" >Integrates Jolt Physics into a</tspan><tspan dy="1.2em" x="0" >game engine, VR application</tspan><tspan dy="1.2em" x="0" >etc.</tspan></text><g  id="v-324" font-weight="normal" text-anchor="middle" color="#ffffff" transform="matrix(1,0,0,1,197.5,368)" display="none" style="fill: rgb(255, 255, 255);"><g ></g><g ></g><g ></g><g ></g></g><image  id="v-325"></image></g></g><!--z-index:15--><g   id="j_29"  transform="translate(940,641)" style=""><g  id="v-334" style="opacity: 1;"><rect  id="v-335" rx="20" ry="20" stroke-width="2" pointer-events="visiblePainted" fill="#1168bd" stroke="#0f5eaa" stroke-dasharray="" width="450" height="300" style="fill: rgb(17, 104, 189); stroke: rgb(15, 94, 170);"></rect><text  id="v-336" font-size="33.599999999999994px" xml:space="preserve" y="52.34" font-weight="bold" text-anchor="middle" pointer-events="visible" font-family="Tahoma, Verdana, Helvetica, Arial" fill="#ffffff" dominant-baseline="hanging" transform="matrix(1,0,0,1,225,0)" style="fill: rgb(255, 255, 255);"><tspan dy="0" >Game/Simulation</tspan><tspan dy="1.2em" x="0" >Application</tspan></text><text  id="v-337" font-size="16.799999999999997px" xml:space="preserve" y="134.26" text-anchor="middle" font-family="Tahoma, Verdana, Helvetica, Arial" fill="#ffffff" dominant-baseline="hanging" transform="matrix(1,0,0,1,225,0)" style="display: block; fill: rgb(255, 255, 255);"><tspan dy="0" >[Software System]</tspan></text><text  id="v-338" font-size="24px" xml:space="preserve" y="166.06" text-anchor="middle" font-family="Tahoma, Verdana, Helvetica, Arial" fill="#ffffff" dominant-baseline="hanging" transform="matrix(1,0,0,1,225,0)" style="display: block; fill: rgb(255, 255, 255);"><tspan dy="0" >External host application or engine</tspan><tspan dy="1.2em" x="0" >that embeds Jolt Physics and drives</tspan><tspan dy="1.2em" x="0" >the simulation.</tspan></text><g  id="v-339" color="#ffffff" transform="matrix(1,0,0,1,222.5,268)" display="none" style="fill: rgb(255, 255, 255);"><g ></g><g ></g><g ></g><g ></g></g><image  id="v-340"></image></g></g><!--z-index:16--><g   id="j_30"  transform="translate(940,160)" style=""><g  id="v-347" style="opacity: 1;"><rect  id="v-348" rx="20" ry="20" stroke-width="2" pointer-events="visiblePainted" fill="#1168bd" stroke="#0f5eaa" stroke-dasharray="" width="450" height="300" style="fill: rgb(17, 104, 189); stroke: rgb(15, 94, 170);"></rect><text  id="v-349" font-size="33.599999999999994px" xml:space="preserve" y="86.9" font-weight="bold" text-anchor="middle" pointer-events="visible" font-family="Tahoma, Verdana, Helvetica, Arial" fill="#ffffff" dominant-baseline="hanging" transform="matrix(1,0,0,1,225,0)" style="fill: rgb(255, 255, 255);"><tspan dy="0" >C++ Build Toolchain</tspan></text><text  id="v-350" font-size="16.799999999999997px" xml:space="preserve" y="128.5" text-anchor="middle" font-family="Tahoma, Verdana, Helvetica, Arial" fill="#ffffff" dominant-baseline="hanging" transform="matrix(1,0,0,1,225,0)" style="display: block; fill: rgb(255, 255, 255);"><tspan dy="0" >[Software System]</tspan></text><text  id="v-351" font-size="24px" xml:space="preserve" y="160.3" text-anchor="middle" font-family="Tahoma, Verdana, Helvetica, Arial" fill="#ffffff" dominant-baseline="hanging" transform="matrix(1,0,0,1,225,0)" style="display: block; fill: rgb(255, 255, 255);"><tspan dy="0" >CMake, compiler, linker, and</tspan><tspan dy="1.2em" x="0" >platform used to build and link Jolt.</tspan></text><g  id="v-352" color="#ffffff" transform="matrix(1,0,0,1,222.5,268)" display="none" style="fill: rgb(255, 255, 255);"><g ></g><g ></g><g ></g><g ></g></g><image  id="v-353"></image></g></g><!--z-index:17--><g   id="j_31"  transform="translate(2520,400)" style=""><g  id="v-360" style="opacity: 1;"><rect  id="v-361" rx="20" ry="20" stroke-width="2" pointer-events="visiblePainted" fill="#1168bd" stroke="#0f5eaa" stroke-dasharray="" width="450" height="300" style="fill: rgb(17, 104, 189); stroke: rgb(15, 94, 170);"></rect><text  id="v-362" font-size="33.599999999999994px" xml:space="preserve" y="32.18000000000002" font-weight="bold" text-anchor="middle" pointer-events="visible" font-family="Tahoma, Verdana, Helvetica, Arial" fill="#ffffff" dominant-baseline="hanging" transform="matrix(1,0,0,1,225,0)" style="fill: rgb(255, 255, 255);"><tspan dy="0" >Operating</tspan><tspan dy="1.2em" x="0" >System/Hardware</tspan><tspan dy="1.2em" x="0" >Platform</tspan></text><text  id="v-363" font-size="16.799999999999997px" xml:space="preserve" y="154.42000000000002" text-anchor="middle" font-family="Tahoma, Verdana, Helvetica, Arial" fill="#ffffff" dominant-baseline="hanging" transform="matrix(1,0,0,1,225,0)" style="display: block; fill: rgb(255, 255, 255);"><tspan dy="0" >[Software System]</tspan></text><text  id="v-364" font-size="24px" xml:space="preserve" y="186.21999999999997" text-anchor="middle" font-family="Tahoma, Verdana, Helvetica, Arial" fill="#ffffff" dominant-baseline="hanging" transform="matrix(1,0,0,1,225,0)" style="display: block; fill: rgb(255, 255, 255);"><tspan dy="0" >Provides CPU execution, memory,</tspan><tspan dy="1.2em" x="0" >threading and optional platform</tspan><tspan dy="1.2em" x="0" >APIs.</tspan></text><g  id="v-365" color="#ffffff" transform="matrix(1,0,0,1,222.5,268)" display="none" style="fill: rgb(255, 255, 255);"><g ></g><g ></g><g ></g><g ></g></g><image  id="v-366"></image></g></g><!--z-index:18--><g   id="j_32"  transform="translate(1730,400)" style=""><g  id="v-370" style="opacity: 1;"><rect  id="v-371" rx="20" ry="20" stroke-width="2" pointer-events="visiblePainted" fill="#1168bd" stroke="#0f5eaa" stroke-dasharray="" width="450" height="300" style="fill: rgb(17, 104, 189); stroke: rgb(15, 94, 170);"></rect><text  id="v-372" font-size="33.599999999999994px" xml:space="preserve" y="86.9" font-weight="bold" text-anchor="middle" pointer-events="visible" font-family="Tahoma, Verdana, Helvetica, Arial" fill="#ffffff" dominant-baseline="hanging" transform="matrix(1,0,0,1,225,0)" style="fill: rgb(255, 255, 255);"><tspan dy="0" >Jolt Physics</tspan></text><text  id="v-373" font-size="16.799999999999997px" xml:space="preserve" y="128.5" text-anchor="middle" font-family="Tahoma, Verdana, Helvetica, Arial" fill="#ffffff" dominant-baseline="hanging" transform="matrix(1,0,0,1,225,0)" style="display: block; fill: rgb(255, 255, 255);"><tspan dy="0" >[Software System]</tspan></text><text  id="v-374" font-size="24px" xml:space="preserve" y="160.3" text-anchor="middle" font-family="Tahoma, Verdana, Helvetica, Arial" fill="#ffffff" dominant-baseline="hanging" transform="matrix(1,0,0,1,225,0)" style="display: block; fill: rgb(255, 255, 255);"><tspan dy="0" >C++17 rigid-body physics and</tspan><tspan dy="1.2em" x="0" >collision-detection library.</tspan></text><g  id="v-375" color="#ffffff" transform="matrix(1,0,0,1,210,268)" display="none" style="fill: rgb(255, 255, 255);"><g  transform="translate(5 0)"><svg xmlns="http://www.w3.org/2000/svg" width="20" height="20" fill="currentColor" viewBox="0 0 16 16"><path fill-rule="evenodd" d="M6.5 12a5.5 5.5 0 1 0 0-11 5.5 5.5 0 0 0 0 11zM13 6.5a6.5 6.5 0 1 1-13 0 6.5 6.5 0 0 1 13 0z"></path><path d="M10.344 11.742c.03.04.062.078.098.115l3.85 3.85a1 1 0 0 0 1.415-1.414l-3.85-3.85a1.007 1.007 0 0 0-.115-.1 6.538 6.538 0 0 1-1.398 1.4z"></path><path fill-rule="evenodd" d="M6.5 3a.5.5 0 0 1 .5.5V6h2.5a.5.5 0 0 1 0 1H7v2.5a.5.5 0 0 1-1 0V7H3.5a.5.5 0 0 1 0-1H6V3.5a.5.5 0 0 1 .5-.5z"></path></svg></g><g ></g><g ></g><g ></g></g><image  id="v-376"></image></g></g><!--z-index:19--><g   id="j_33"  style="opacity: 1;"><path fill="none" cursor="pointer" stroke="transparent" stroke-linecap="round" joint-selector="wrapper" id="v-391" stroke-width="10" stroke-linejoin="round" d="M 1390 310 L 1550 310 C 1556.6666666666665 310 1563 311.66666666666663 1569 315 L 1730 413.29" style="stroke-width: 10px;"></path><path fill="none" pointer-events="none" joint-selector="line" id="v-390" stroke="#444444" stroke-width="2" stroke-linejoin="round" stroke-dasharray="8 8" d="M 1390 310 L 1550 310 C 1556.6666666666665 310 1563 311.66666666666663 1569 315 L 1730 413.29" marker-end="url(#v-21252848929)"></path><g id="v-380" ><g id="v-381"  label-idx="0" cursor="move" transform="matrix(1,0,0,1,1559.6015625,297.8112487792969)" style="cursor: default;"><rect joint-selector="rect" id="v-385" fill="#ffffff" rx="3" ry="3" x="-81.93602752685547" y="-16.456716537475586" width="164.96363830566406" height="29.57089614868164" pointer-events="none"  style="display: block;"></rect><text joint-selector="text" id="v-384" font-size="24px" xml:space="preserve" fill="#444444" text-anchor="middle" pointer-events="none" font-family="Tahoma, Verdana, Helvetica, Arial" font-weight="normal"  style="display: block;"><tspan dy="0.3em" >Builds and links</tspan></text></g><g id="v-382"  label-idx="1" cursor="move" transform="matrix(1,0,0,1,1559.6015625,328.21124267578125)" style="cursor: default;"><rect joint-selector="rect" id="v-387" fill="#ffffff" rx="3" ry="3" x="-60.52792739868164" y="-12.70253849029541" width="122.50679016113281" height="21.68532371520996"  pointer-events="none" style="display: block;"></rect><text joint-selector="text" id="v-386" font-size="16.799999999999997px" xml:space="preserve" fill="#444444" text-anchor="middle" pointer-events="none" font-family="Tahoma, Verdana, Helvetica, Arial" font-weight="normal"  style="display: block;"><tspan dy="0.3em" >[CMake/C++17]</tspan></text></g><g id="v-383"  label-idx="2" cursor="move" transform="matrix(1,0,0,1,1562.742919921875,342.6850280761719)" style="cursor: default;"><rect joint-selector="rect" id="v-389" fill="#ffffff" rx="3" ry="3" x="0" y="0" width="0" height="0"  display="none"></rect><text joint-selector="text" id="v-388" fill="#000000" font-size="14" text-anchor="middle" text-vertical-anchor="middle" pointer-events="none"></text></g></g></g><!--z-index:20--><g   id="j_34"  style="opacity: 1;"><path fill="none" cursor="pointer" stroke="transparent" stroke-linecap="round" joint-selector="wrapper" id="v-409" stroke-width="10" stroke-linejoin="round" d="M 2180 550 L 2520 550" style="stroke-width: 10px;"></path><path fill="none" pointer-events="none" joint-selector="line" id="v-408" stroke="#444444" stroke-width="2" stroke-linejoin="round" stroke-dasharray="8 8" d="M 2180 550 L 2520 550" marker-end="url(#v-21252848929)"></path><g id="v-398" ><g id="v-399"  label-idx="0" cursor="move" transform="matrix(1,0,0,1,2350,536.5999755859375)" style="cursor: default;"><rect joint-selector="rect" id="v-403" fill="#ffffff" rx="3" ry="3" x="-69.49160766601562" y="-30.856718063354492" width="140.13168334960938" height="58.37089538574219" pointer-events="none"  style="display: block;"></rect><text joint-selector="text" id="v-402" font-size="24px" xml:space="preserve" fill="#444444" text-anchor="middle" pointer-events="none" font-family="Tahoma, Verdana, Helvetica, Arial" font-weight="normal"  style="display: block;"><tspan dy="-0.3em" >Uses runtime</tspan><tspan dy="1.2em" x="0" >services</tspan></text></g><g id="v-400"  label-idx="1" cursor="move" transform="matrix(1,0,0,1,2350,581.4000244140625)" style="cursor: default;"><rect joint-selector="rect" id="v-405" fill="#ffffff" rx="3" ry="3" x="-87.63458251953125" y="-12.70253849029541" width="176.70899963378906" height="21.68532371520996"  pointer-events="none" style="display: block;"></rect><text joint-selector="text" id="v-404" font-size="16.799999999999997px" xml:space="preserve" fill="#444444" text-anchor="middle" pointer-events="none" font-family="Tahoma, Verdana, Helvetica, Arial" font-weight="normal"  style="display: block;"><tspan dy="0.3em" >[Threads, memory etc.]</tspan></text></g><g id="v-401"  label-idx="2" cursor="move" transform="matrix(1,0,0,1,2340,589.7999877929688)" style="cursor: default;"><rect joint-selector="rect" id="v-407" fill="#ffffff" rx="3" ry="3" x="0" y="-5.684341886080802e-14" width="0" height="0"  display="none"></rect><text joint-selector="text" id="v-406" fill="#000000" font-size="14" text-anchor="middle" text-vertical-anchor="middle" pointer-events="none"></text></g></g></g><!--z-index:21--><g   id="j_35"  style="opacity: 1;"><path fill="none" cursor="pointer" stroke="transparent" stroke-linecap="round" joint-selector="wrapper" id="v-421" stroke-width="10" stroke-linejoin="round" d="M 600 606.03 L 760 554 C 766.6666666666665 551.8666666666667 773.3333333333333 550.8666666666667 780 551 L 1730 550.15" style="stroke-width: 10px;"></path><path fill="none" pointer-events="none" joint-selector="line" id="v-420" stroke="#444444" stroke-width="2" stroke-linejoin="round" stroke-dasharray="8 8" d="M 600 606.03 L 760 554 C 766.6666666666665 551.8666666666667 773.3333333333333 550.8666666666667 780 551 L 1730 550.15" marker-end="url(#v-21252848929)"></path><g id="v-413" ><g id="v-414"  label-idx="0" cursor="move" transform="matrix(1,0,0,1,1165.1072998046875,550.6554565429688)" style="cursor: default;"><rect joint-selector="rect" id="v-417" fill="#ffffff" rx="3" ry="3" x="-88.03502655029297" y="-45.256717681884766" width="176.33692932128906" height="87.17090606689453" pointer-events="none"  style="display: block;"></rect><text joint-selector="text" id="v-416" font-size="24px" xml:space="preserve" fill="#444444" text-anchor="middle" pointer-events="none" font-family="Tahoma, Verdana, Helvetica, Arial" font-weight="normal"  style="display: block;"><tspan dy="-0.8999999999999999em" >Uses public C++</tspan><tspan dy="1.2em" x="0" >API and</tspan><tspan dy="1.2em" x="0" >documentation</tspan></text></g><g id="v-415"  label-idx="1" cursor="move" transform="matrix(1,0,0,1,1155.1072998046875,591.4554443359375)" style="cursor: default;"><rect joint-selector="rect" id="v-419" fill="#ffffff" rx="3" ry="3" x="0" y="-5.684341886080802e-14" width="0" height="0"  display="none"></rect><text joint-selector="text" id="v-418" fill="#000000" font-size="14" text-anchor="middle" text-vertical-anchor="middle" pointer-events="none"></text></g></g></g><!--z-index:22--><g   id="j_36"  style="opacity: 1;"><path fill="none" cursor="pointer" stroke="transparent" stroke-linecap="round" joint-selector="wrapper" id="v-433" stroke-width="10" stroke-linejoin="round" d="M 600 736.19 L 760 789 C 766.6666666666665 790.7333333333333 773.3333333333333 791.7333333333333 780 792 L 940 791.34" style="stroke-width: 10px;"></path><path fill="none" pointer-events="none" joint-selector="line" id="v-432" stroke="#444444" stroke-width="2" stroke-linejoin="round" stroke-dasharray="8 8" d="M 600 736.19 L 760 789 C 766.6666666666665 790.7333333333333 773.3333333333333 791.7333333333333 780 792 L 940 791.34" marker-end="url(#v-21252848929)"></path><g id="v-425" ><g id="v-426"  label-idx="0" cursor="move" transform="matrix(1,0,0,1,770.078125,791.0617065429688)" style="cursor: default;"><rect joint-selector="rect" id="v-429" fill="#ffffff" rx="3" ry="3" x="-71.26277923583984" y="-30.856718063354492" width="143.03700256347656" height="58.37089538574219" pointer-events="none"  style="display: block;"></rect><text joint-selector="text" id="v-428" font-size="24px" xml:space="preserve" fill="#444444" text-anchor="middle" pointer-events="none" font-family="Tahoma, Verdana, Helvetica, Arial" font-weight="normal"  style="display: block;"><tspan dy="-0.3em" >Develops and</tspan><tspan dy="1.2em" x="0" >configures</tspan></text></g><g id="v-427"  label-idx="1" cursor="move" transform="matrix(1,0,0,1,760.078125,817.461669921875)" style="cursor: default;"><rect joint-selector="rect" id="v-431" fill="#ffffff" rx="3" ry="3" x="0" y="-1.1368683772161603e-13" width="0" height="0"  display="none"></rect><text joint-selector="text" id="v-430" fill="#000000" font-size="14" text-anchor="middle" text-vertical-anchor="middle" pointer-events="none"></text></g></g></g><!--z-index:23--><g   id="j_37"  style="opacity: 1;"><path fill="none" cursor="pointer" stroke="transparent" stroke-linecap="round" joint-selector="wrapper" id="v-451" stroke-width="10" stroke-linejoin="round" d="M 1390 791.34 L 1550 792 C 1556.6666666666665 791.7333333333333 1563 789.7333333333333 1569 786 L 1730 687.62" style="stroke-width: 10px;"></path><path fill="none" pointer-events="none" joint-selector="line" id="v-450" stroke="#444444" stroke-width="2" stroke-linejoin="round" stroke-dasharray="8 8" d="M 1390 791.34 L 1550 792 C 1556.6666666666665 791.7333333333333 1563 789.7333333333333 1569 786 L 1730 687.62" marker-end="url(#v-21252848929)"></path><g id="v-440" ><g id="v-441"  label-idx="0" cursor="move" transform="matrix(1,0,0,1,1559.712890625,776.9116821289062)" style="cursor: default;"><rect joint-selector="rect" id="v-445" fill="#ffffff" rx="3" ry="3" x="-92.56306457519531" y="-45.256717681884766" width="186.2377471923828" height="87.17090606689453" pointer-events="none"  style="display: block;"></rect><text joint-selector="text" id="v-444" font-size="24px" xml:space="preserve" fill="#444444" text-anchor="middle" pointer-events="none" font-family="Tahoma, Verdana, Helvetica, Arial" font-weight="normal"  style="display: block;"><tspan dy="-0.8999999999999999em" >Embeds and uses</tspan><tspan dy="1.2em" x="0" >physics</tspan><tspan dy="1.2em" x="0" >functionality</tspan></text></g><g id="v-442"  label-idx="1" cursor="move" transform="matrix(1,0,0,1,1559.712890625,836.1116943359375)" style="cursor: default;"><rect joint-selector="rect" id="v-447" fill="#ffffff" rx="3" ry="3" x="-98.47724914550781" y="-12.70253849029541" width="198.40960693359375" height="21.68532371520996"  pointer-events="none" style="display: block;"></rect><text joint-selector="text" id="v-446" font-size="16.799999999999997px" xml:space="preserve" fill="#444444" text-anchor="middle" pointer-events="none" font-family="Tahoma, Verdana, Helvetica, Arial" font-weight="normal"  style="display: block;"><tspan dy="0.3em" >[C++ API/in-process calls]</tspan></text></g><g id="v-443"  label-idx="2" cursor="move" transform="matrix(1,0,0,1,1562.637939453125,837.9769897460938)" style="cursor: default;"><rect joint-selector="rect" id="v-449" fill="#ffffff" rx="3" ry="3" x="0" y="0" width="0" height="0"  display="none"></rect><text joint-selector="text" id="v-448" fill="#000000" font-size="14" text-anchor="middle" text-vertical-anchor="middle" pointer-events="none"></text></g></g></g><!--z-index:24--><!--z-index:25--><!--z-index:26--></g><g  style="user-select: none;"></g><g ></g><g  display="none"></g></g></svg>